<svg width="19" height="20" viewBox="0 0 19 20" fill="none" xmlns="http://www.w3.org/2000/svg">
<path d="M4.52381 0C2.03059 0 0 2.13746 0 4.7619V15.2381C0 17.8625 2.03059 20 4.52381 20H14.4762C16.9694 20 19 17.8625 19 15.2381V4.7619C19 2.13746 16.9694 0 14.4762 0H4.52381ZM4.52381 0.952381H14.4762C16.4805 0.952381 18.0952 2.65206 18.0952 4.7619V15.2381C18.0952 17.3479 16.4805 19.0476 14.4762 19.0476H4.52381C2.51946 19.0476 0.904762 17.3479 0.904762 15.2381V4.7619C0.904762 2.65206 2.51946 0.952381 4.52381 0.952381ZM4.07143 5.2381C3.32728 5.2381 2.71429 5.88335 2.71429 6.66667V13.3333C2.71429 14.1167 3.32728 14.7619 4.07143 14.7619H14.9286C15.6727 14.7619 16.2857 14.1167 16.2857 13.3333V6.66667C16.2857 5.88335 15.6727 5.2381 14.9286 5.2381H4.07143ZM4.25874 6.19048H14.7404L10.7114 10.425C10.036 11.1348 8.95571 11.1347 8.28069 10.4241L4.25874 6.19048ZM15.381 6.86291V13.1371L12.3963 10L15.381 6.86291ZM3.61905 6.86384L6.5984 10L3.61905 13.1362V6.86384ZM11.7566 10.6724L14.7413 13.8095H4.25874L7.2381 10.6734L7.641 11.0975C8.6615 12.1717 10.3291 12.1725 11.3502 11.0993L11.7566 10.6724Z" fill="#99A3AD"/>
</svg>
